<?xml version="1.0" encoding="UTF-8"?>
<svg version="1.1" xmlns="http://www.w3.org/2000/svg" width="405" height="124">
<path d="M0 0 C133.65 0 267.3 0 405 0 C405 40.92 405 81.84 405 124 C271.35 124 137.7 124 0 124 C0 83.08 0 42.16 0 0 Z " fill="#FEFEFE" transform="translate(0,0)"/>
<path d="M0 0 C10.7794908 -0.06970929 21.5589274 -0.12291723 32.33859825 -0.15543652 C37.34479141 -0.17104924 42.3508296 -0.19220679 47.35693359 -0.22631836 C52.19395075 -0.25906909 57.03081946 -0.27688601 61.867939 -0.28463173 C63.70739705 -0.29014714 65.54684757 -0.30091701 67.38624191 -0.31719017 C86.95077545 -0.48329268 86.95077545 -0.48329268 94 3 C94.99 3.99 94.99 3.99 96 5 C96.66 3.35 97.32 1.7 98 0 C109.28372598 -0.09297124 120.56735976 -0.16390223 131.85139179 -0.20724869 C137.09190279 -0.2280603 142.33215034 -0.25625986 147.57250977 -0.30175781 C152.63647717 -0.34544559 157.7001923 -0.36918536 162.76433372 -0.37950897 C164.68950556 -0.38685936 166.61466469 -0.4012123 168.53972816 -0.42292023 C192.01502904 -0.67694038 192.01502904 -0.67694038 199.27998352 6.13909912 C200.13139168 7.06024506 200.13139168 7.06024506 201 8 C201.928125 7.236875 202.85625 6.47375 203.8125 5.6875 C211.51147908 0.22312981 220.6848667 -0.44768535 229.85546875 -0.328125 C230.88782654 -0.32670502 231.92018433 -0.32528503 232.98382568 -0.32382202 C236.38531797 -0.31465502 239.78616184 -0.28301493 243.1875 -0.25 C245.58601435 -0.23662932 247.98453362 -0.22411492 250.38305664 -0.21240234 C256.86846941 -0.17465339 263.35348428 -0.11299284 269.83862305 -0.0435791 C273.39372558 -0.00566382 276.94885649 0.02744032 280.50401783 0.05930328 C289.27142242 0.13802535 298.03844541 0.23677919 306.80548477 0.34877014 C308.93039385 0.37491257 311.05531787 0.39817774 313.18026733 0.42077637 C317.17117919 0.46411349 321.16167571 0.52408817 325.15234375 0.5859375 C326.33648865 0.59750885 327.52063354 0.6090802 328.74066162 0.6210022 C338.03341632 0.78790901 345.14961285 1.31669547 352 8 C354.15365559 12.30731117 353.43848362 16.59357745 352.05859375 21.01953125 C347.78757584 31.87782443 342.18190033 35.81097549 332 41 C333.16015625 42.34191406 333.16015625 42.34191406 334.34375 43.7109375 C339.68780456 49.90852646 344.98310628 56.12322704 350.05078125 62.55078125 C353.01072437 66.26998833 356.06698477 69.90932326 359.1171875 73.5546875 C360.7510223 75.67663892 361.85491904 77.60274417 363 80 C326.35387378 82.94415948 326.35387378 82.94415948 318.6796875 76.70703125 C315.58565228 73.27145454 313.34177612 69.43297272 311.25341797 65.32275391 C309.21852736 61.55182496 306.51861687 58.36635706 303.8125 55.0625 C302.9436114 53.92869109 302.0750878 52.79460232 301.20703125 51.66015625 C299.09563076 48.85707646 299.09563076 48.85707646 296 47 C295.896875 47.70125 295.79375 48.4025 295.6875 49.125 C294.90646943 52.39112785 293.53691116 55.02506741 292 58 C273.66966491 58.89451084 255.32392331 59.18151072 236.97390747 59.28710938 C234.50060298 59.30397305 232.02733589 59.32784577 229.5541687 59.35888672 C226.02029805 59.40114065 222.48721785 59.41660794 218.953125 59.42578125 C217.89672318 59.44324905 216.84032135 59.46071686 215.75190735 59.47871399 C207.00266096 59.45358269 199.91195779 57.48971269 193 52 C192.071875 52.8971875 192.071875 52.8971875 191.125 53.8125 C181.52997035 60.52902076 169.85086583 59.47353179 158.6484375 59.51171875 C156.77941728 59.52858732 154.91040826 59.54674046 153.04141235 59.56611633 C148.152359 59.61338606 143.26335105 59.64334384 138.37414551 59.66955566 C133.37303708 59.69947804 128.37208476 59.74596795 123.37109375 59.79101562 C113.58081121 59.8767864 103.79049632 59.94424765 94 60 C94.83144531 60.95261719 95.66289063 61.90523437 96.51953125 62.88671875 C97.6173858 64.153474 98.71503103 65.42041068 99.8125 66.6875 C100.63331055 67.62625977 100.63331055 67.62625977 101.47070312 68.58398438 C104.34020241 71.90564718 106.8880813 75.12444393 109 79 C103.66619709 79.34959382 98.33921142 79.60157742 92.99658203 79.76904297 C91.18582967 79.83889777 89.37585132 79.93404044 87.56787109 80.05615234 C73.0375086 81.01199156 73.0375086 81.01199156 68.04122925 77.70254517 C64.47864844 74.46187067 61.73567572 70.70828492 59.1104126 66.68981934 C57.73512747 64.59691855 56.18902022 62.67792386 54.59765625 60.74609375 C53.74900792 59.64599406 52.90367993 58.5433208 52.0625 57.4375 C48.93937115 53.3375128 45.71520803 49.56899233 42 46 C41.79503906 46.69867188 41.59007812 47.39734375 41.37890625 48.1171875 C41.10949219 49.02726562 40.84007812 49.93734375 40.5625 50.875 C40.29566406 51.77992187 40.02882812 52.68484375 39.75390625 53.6171875 C39 56 39 56 38 58 C27.11 58 16.22 58 5 58 C6.80609711 52.58170866 8.56126815 47.44241946 10.734375 42.20703125 C11.22550781 40.99982422 11.71664063 39.79261719 12.22265625 38.54882812 C12.98824539 36.66985645 13.75808181 34.79316405 14.54052734 32.92114258 C15.30609765 31.08448933 16.05174371 29.2395712 16.796875 27.39453125 C17.24385742 26.31018799 17.69083984 25.22584473 18.15136719 24.10864258 C19.11404023 20.58225713 19.02482376 18.49304387 18 15 C15.92541199 13.05141098 14.06691961 11.52689671 11.75 9.9375 C10.59632801 9.116967 9.4452507 8.29277293 8.296875 7.46484375 C7.78479492 7.110271 7.27271484 6.75569824 6.74511719 6.39038086 C4.30681694 4.44772278 2.19243981 2.21277024 0 0 Z " fill="#DFDFDF" transform="translate(18,23)"/>
<path d="M0 0 C7.84702316 -0.07620035 15.69395052 -0.12866329 23.54125977 -0.16479492 C26.20973072 -0.17816361 28.87771718 -0.20031605 31.54614258 -0.22631836 C35.38629252 -0.26279585 39.22611438 -0.27974859 43.06640625 -0.29296875 C44.84961021 -0.31619453 44.84961021 -0.31619453 46.6688385 -0.33988953 C52.89176482 -0.34114781 57.54657106 -0.11077541 63 3 C65 5 65 5 65.265625 7.87109375 C65.10082969 13.35906155 63.8652541 18.70471493 62.75 24.0625 C62.54503906 25.12533203 62.34007812 26.18816406 62.12890625 27.28320312 C59.8944525 38.12368936 59.8944525 38.12368936 56 42 C48.08681869 45.99342857 40.61876228 46.54775275 31.89453125 46.390625 C30.6893132 46.38496521 29.48409515 46.37930542 28.24235535 46.37347412 C24.4319817 46.35126855 20.62258446 46.30110001 16.8125 46.25 C14.2129043 46.22991464 11.61329372 46.21166747 9.01367188 46.1953125 C2.67545393 46.15145565 -3.66220325 46.08470307 -10 46 C-5.80225506 23.55452813 -5.80225506 23.55452813 -3.3125 12.875 C-2.99442383 11.48087891 -2.99442383 11.48087891 -2.66992188 10.05859375 C-1.88527714 6.6477406 -1.10749676 3.32249029 0 0 Z " fill="#1F1F1F" transform="translate(149,30)"/>
<path d="M0 0 C8.76240308 -0.09281293 17.52463611 -0.16382186 26.28742409 -0.20724869 C30.35666939 -0.2280949 34.42557759 -0.25635753 38.49462891 -0.30175781 C42.42390618 -0.3453226 46.35285987 -0.36915942 50.28236008 -0.37950897 C51.77905748 -0.38688138 53.27573782 -0.4012782 54.77229691 -0.42292023 C56.87413602 -0.45209757 58.97465006 -0.45595032 61.07666016 -0.45410156 C62.27134918 -0.46298401 63.46603821 -0.47186646 64.69692993 -0.48101807 C68.6560874 0.09554441 70.85732121 1.58649741 74 4 C72.6869337 11.46374531 71.23944006 18.39436343 65.125 23.3125 C59.53739409 26.07560182 53.07935096 26.88699816 47 28 C52.4419872 35.02090031 57.92014003 41.99223387 63.6875 48.75 C77 64.34917898 77 64.34917898 77 66 C58.24377947 68.67842126 58.24377947 68.67842126 51.71386719 64.55712891 C47.58496167 60.68282901 44.51921156 56.05417347 41.49365234 51.29638672 C39.23855496 47.82933115 36.65696904 44.6533054 34.0625 41.4375 C33.18111813 40.30950974 32.3008584 39.18064151 31.421875 38.05078125 C28.40266777 34.24755407 25.24790433 30.60878259 22 27 C19.69 32.61 17.38 38.22 15 44 C8.73 44 2.46 44 -4 44 C-2.68946121 39.14329743 -1.24862049 34.48135043 0.7578125 29.8671875 C1.07355225 29.13749756 1.38929199 28.40780762 1.71459961 27.65600586 C2.34968641 26.2078167 2.99838983 24.76550146 3.66235352 23.33032227 C5.91104339 18.1905457 6.70225347 13.60611331 6 8 C4.47751335 4.66502924 2.58494669 2.53426146 0 0 Z " fill="#1E1E1E" transform="translate(37,30)"/>
<path d="M0 0 C8.64932083 -0.06956643 17.29854508 -0.12284485 25.94808483 -0.15543652 C29.96459536 -0.17108035 33.98091422 -0.19229492 37.99731445 -0.22631836 C41.87470186 -0.25895797 45.75190512 -0.27686267 49.62941933 -0.28463173 C51.10738333 -0.29016701 52.58533746 -0.30097619 54.06322289 -0.31719017 C56.13636282 -0.33902641 58.20874564 -0.34196446 60.28198242 -0.34057617 C61.46112717 -0.34723801 62.64027191 -0.35389984 63.85514832 -0.36076355 C67.34251076 0.03929133 69.21914674 0.8899446 72 3 C73.70184249 7.17339797 72.60968156 10.01755928 70.9375 14.0625 C68.18206091 20.2660438 65.45545712 22.47317011 59.3125 25.1875 C54.58710098 26.34656014 49.8456894 26.67235552 45 27 C45.66644531 27.77601562 46.33289063 28.55203125 47.01953125 29.3515625 C52.98688866 36.33333787 58.7659711 43.43155092 64.40625 50.6796875 C67.42997037 54.56507818 70.52864972 58.38890236 73.63671875 62.20703125 C75 64 75 64 75 65 C55.74472169 66.45308795 55.74472169 66.45308795 50.14453125 63.48828125 C48.09414124 61.12311921 46.58695056 58.69854727 45 56 C43.28891704 53.70209882 41.48177115 51.48319978 39.6875 49.25 C38.75569154 48.05011464 37.82470951 46.84958707 36.89453125 45.6484375 C33.55955931 41.39272579 30.03418781 37.30128489 26.44018555 33.26269531 C22.17536606 28.36118291 22.17536606 28.36118291 22 25 C24.47121318 21.00804025 26.56297899 19.34705831 31 18 C34.09934226 17.63013454 37.19459407 17.49312114 40.3125 17.375 C41.14845703 17.33632813 41.98441406 17.29765625 42.84570312 17.2578125 C44.89679259 17.16404841 46.94836515 17.08095755 49 17 C50.4606285 14.35261084 51 13.10551666 51 10 C43.41 10 35.82 10 28 10 C23.38 21.22 18.76 32.44 14 44 C7.73 44 1.46 44 -5 44 C-3.47575241 38.35131774 -1.63556264 33.06800983 0.7175293 27.72192383 C5.42845567 17.70070858 5.42845567 17.70070858 5 7 C4.18000644 5.76644541 3.32810932 4.55380179 2.45410156 3.35791016 C1.99666565 2.72873688 1.53922974 2.0995636 1.06793213 1.45132446 C0.71551453 0.97238739 0.36309692 0.49345032 0 0 Z " fill="#1E1E1E" transform="translate(292,31)"/>
<path d="M0 0 C0.96061844 0.00007553 1.92123688 0.00015106 2.91096497 0.00022888 C4.44716743 0.00797081 4.44716743 0.00797081 6.0144043 0.01586914 C7.07273972 0.01728409 8.13107513 0.01869904 9.22148132 0.02015686 C12.59389093 0.0257438 15.96623358 0.03829395 19.33862305 0.05102539 C21.62833563 0.05604208 23.91804925 0.06060469 26.20776367 0.06469727 C31.81390917 0.07570896 37.42000476 0.09296467 43.02612305 0.11352539 C42.69612305 3.41352539 42.36612305 6.71352539 42.02612305 10.11352539 C28.82612305 10.44352539 15.62612305 10.77352539 2.02612305 11.11352539 C1.03612305 13.42352539 0.04612305 15.73352539 -0.97387695 18.11352539 C12.55612305 18.11352539 26.08612305 18.11352539 40.02612305 18.11352539 C39.36612305 21.41352539 38.70612305 24.71352539 38.02612305 28.11352539 C24.49612305 28.11352539 10.96612305 28.11352539 -2.97387695 28.11352539 C-3.30387695 30.42352539 -3.63387695 32.73352539 -3.97387695 35.11352539 C15.82612305 35.60852539 15.82612305 35.60852539 36.02612305 36.11352539 C35.36612305 39.41352539 34.70612305 42.71352539 34.02612305 46.11352539 C27.49742083 46.18803215 20.9689696 46.2422961 14.43994141 46.27832031 C12.22179855 46.29334816 10.00368512 46.31377616 7.78564453 46.33984375 C4.58578197 46.37649163 1.38631444 46.39331227 -1.8137207 46.40649414 C-2.79533676 46.421978 -3.77695282 46.43746185 -4.78831482 46.45341492 C-11.4508611 46.45502046 -18.31177716 46.00365049 -23.73326111 41.72502136 C-24.97387695 40.11352539 -24.97387695 40.11352539 -24.8137207 36.66040039 C-24.55752056 35.14058084 -24.27467211 33.62515109 -23.97387695 32.11352539 C-23.79872559 31.20924805 -23.62357422 30.3049707 -23.44311523 29.37329102 C-22.83695458 26.36304407 -22.19176726 23.3634169 -21.53637695 20.36352539 C-21.31916992 19.33614258 -21.10196289 18.30875977 -20.87817383 17.25024414 C-20.66354492 16.2615332 -20.44891602 15.27282227 -20.2277832 14.25415039 C-20.03514893 13.36244141 -19.84251465 12.47073242 -19.64404297 11.55200195 C-18.42987585 7.13411447 -17.58148841 5.51477824 -13.66137695 2.92602539 C-9.30912282 0.47115845 -4.94023533 -0.01303492 0 0 Z " fill="#202020" transform="translate(240.973876953125,29.886474609375)"/>
<path d="M0 0 C6.6 0 13.2 0 20 0 C15.23881168 23.98155922 15.23881168 23.98155922 12.75 35.9375 C12.58725586 36.72874268 12.42451172 37.51998535 12.25683594 38.33520508 C11.1175698 43.76486039 11.1175698 43.76486039 10 46 C3.73 46 -2.54 46 -9 46 C-8.4233268 36.76521944 -6.60592387 28.03634441 -4.5 19.0625 C-4.17512636 17.65314559 -3.85090361 16.24364098 -3.52734375 14.83398438 C-2.3868899 9.88023889 -1.23292244 4.93168978 0 0 Z " fill="#1D1D1D" transform="translate(121,30)"/>
<path d="M0 0 C8.91 0 17.82 0 27 0 C28.23581491 4.94325964 27.37004367 8.13092127 26.25 13 C26.07984375 13.80695312 25.9096875 14.61390625 25.734375 15.4453125 C25.47140625 16.61707031 25.47140625 16.61707031 25.203125 17.8125 C25.04489258 18.52019531 24.88666016 19.22789063 24.72363281 19.95703125 C23.81490214 22.52257048 22.95505172 24.08395909 21 26 C18.27270508 26.45410156 18.27270508 26.45410156 15.01953125 26.390625 C13.97128174 26.38063477 12.92303223 26.37064453 11.84301758 26.36035156 C10.51294678 26.32393555 9.18287598 26.28751953 7.8125 26.25 C3.584375 26.1675 -0.64375 26.085 -5 26 C-3.35 17.42 -1.7 8.84 0 0 Z " fill="#E0E0E0" transform="translate(166,40)"/>
<path d="M0 0 C3.6041498 -0.02900455 7.20826962 -0.04680018 10.8125 -0.0625 C11.83666016 -0.07087891 12.86082031 -0.07925781 13.91601562 -0.08789062 C15.39038086 -0.09272461 15.39038086 -0.09272461 16.89453125 -0.09765625 C17.80050049 -0.10289307 18.70646973 -0.10812988 19.63989258 -0.11352539 C22 0 22 0 25 1 C24.68021407 3.8780734 24.18120625 5.73448924 22.5390625 8.140625 C18.21249291 11.30900519 13.28355353 10.51227025 8.0859375 10.48828125 C2.41518612 10.58636028 -0.58544055 11.37632254 -5 15 C-3.33333333 10 -1.66666667 5 0 0 Z " fill="#DADADA" transform="translate(65,39)"/>
<path d="M0 0 C4.62 0 9.24 0 14 0 C13.43254837 4.7017421 12.7795919 9.32244862 12 14 C7.05 14 2.1 14 -3 14 C-1.125 3.375 -1.125 3.375 0 0 Z " fill="#FDFDFD" transform="translate(172,46)"/>
<path d="M0 0 C1.66285211 3.32570422 -0.01920148 6.68360945 -0.9375 10.125 C-1.13279297 10.87910156 -1.32808594 11.63320312 -1.52929688 12.41015625 C-2.01323358 14.27508306 -2.50580769 16.13776459 -3 18 C-6.57437526 14.47368357 -9.83529202 10.88806981 -13 7 C-10.31767339 5.21178226 -7.69711039 3.79857396 -4.8125 2.375 C-3.91144531 1.92898437 -3.01039062 1.48296875 -2.08203125 1.0234375 C-1.39496094 0.68570313 -0.70789063 0.34796875 0 0 Z " fill="#FEFEFE" transform="translate(108,56)"/>
<path d="M0 0 C0.99 0.66 1.98 1.32 3 2 C3.87322172 7.52480664 1.67046124 11.93070607 -0.5 16.875 C-0.83386719 17.65875 -1.16773438 18.4425 -1.51171875 19.25 C-2.33156562 21.17078409 -3.16448161 23.08598082 -4 25 C-5.13902011 21.58293968 -4.8198446 20.33739308 -4.00390625 16.89453125 C-3.77509766 15.91162109 -3.54628906 14.92871094 -3.31054688 13.91601562 C-3.06369141 12.89185547 -2.81683594 11.86769531 -2.5625 10.8125 C-2.31951172 9.77673828 -2.07652344 8.74097656 -1.82617188 7.67382812 C-1.22457901 5.11410947 -0.61559499 2.55638082 0 0 Z " fill="#FBFBFB" transform="translate(289,38)"/>
</svg>
